<svg version="1.1" id="Layer_1" xmlns="http://www.w3.org/2000/svg" xmlns:xlink="http://www.w3.org/1999/xlink" x="0px" y="0px"
	 width="100%" viewBox="0 0 272 268" enable-background="new 0 0 272 268" xml:space="preserve">
<path fill="#FCA72D" opacity="1.000000" stroke="none" 
	d="
M179.000000,269.000000 
	C177.611115,269.000000 176.222214,269.000000 174.197388,268.629303 
	C168.308075,267.838806 162.995163,267.780334 157.813263,266.926636 
	C145.704285,264.931732 134.303726,260.642242 127.600899,249.831818 
	C121.005524,239.194641 115.217583,227.914948 110.360764,216.376160 
	C103.696320,200.542862 93.476501,188.666748 78.061340,180.928467 
	C64.164154,173.952194 50.353104,166.731995 36.973160,158.825531 
	C29.280663,154.279877 21.555656,149.046951 15.555163,142.545319 
	C5.237189,131.365601 2.127882,117.035172 1.957382,102.046196 
	C1.942001,100.694008 1.333210,99.348572 1.000000,98.000000 
	C1.000000,72.645775 1.000000,47.291542 1.324964,21.325087 
	C4.340240,12.917951 11.569824,11.187568 18.086552,9.097011 
	C37.214798,2.960696 57.020519,1.772405 76.964912,1.953911 
	C78.640244,1.969158 80.321495,1.333340 82.000000,1.000000 
	C82.750000,1.000000 83.500000,1.000000 84.845718,1.373213 
	C103.159233,3.163086 121.016167,3.648889 138.553879,6.270296 
	C154.609421,8.670162 170.702911,12.225096 186.093018,17.337986 
	C209.209045,25.017584 229.405258,38.039463 246.385422,55.821938 
	C260.979797,71.105896 268.688416,89.370644 271.019745,110.157433 
	C271.575958,115.116608 272.334503,120.053085 273.000000,125.000000 
	C273.000000,136.020889 273.000000,147.041794 272.635681,158.737595 
	C270.235077,169.462875 268.838745,179.696793 266.020416,189.522873 
	C261.148163,206.509964 252.799591,221.767639 241.345627,235.394333 
	C228.999390,250.082520 214.486694,261.289307 195.592560,265.963318 
	C190.144684,267.310974 184.535324,268.005859 179.000000,269.000000 
z"/>

</svg>